<mxGraphModel dx="666" dy="664" grid="1" gridSize="10" guides="1" tooltips="1" connect="1" arrows="1" fold="1" page="1" pageScale="1" pageWidth="850" pageHeight="1100" math="0" shadow="0"><root><mxCell id="0"/><mxCell id="1" parent="0"/><mxCell id="35" value="" style="rounded=0;whiteSpace=wrap;html=1;fillColor=none;" parent="1" vertex="1"><mxGeometry x="50" y="400" width="510" height="80" as="geometry"/></mxCell><mxCell id="3" value="DIS" style="rounded=0;whiteSpace=wrap;html=1;fontColor=#003366;strokeColor=#003366;fillColor=#99CCFF;" parent="1" vertex="1"><mxGeometry x="200" y="570" width="80" height="40" as="geometry"/></mxCell><mxCell id="11" style="edgeStyle=none;html=1;exitX=0.5;exitY=0;exitDx=0;exitDy=0;entryX=0.5;entryY=1;entryDx=0;entryDy=0;" parent="1" source="4" target="26" edge="1"><mxGeometry relative="1" as="geometry"><mxPoint x="290" y="190" as="targetPoint"/><Array as="points"/></mxGeometry></mxCell><mxCell id="4" value="Lightning" style="rounded=0;whiteSpace=wrap;html=1;fillColor=#ffff88;strokeColor=#999900;fontColor=#666600;" parent="1" vertex="1"><mxGeometry x="200" y="300" width="80" height="40" as="geometry"/></mxCell><mxCell id="6" value="" style="edgeStyle=none;curved=1;rounded=0;orthogonalLoop=1;jettySize=auto;html=1;endArrow=open;targetPerimeterSpacing=8;fontSize=16;sketch=1;exitX=0.5;exitY=0;exitDx=0;exitDy=0;entryX=0.5;entryY=1;entryDx=0;entryDy=0;startArrow=none;" parent="1" source="20" target="4" edge="1"><mxGeometry width="120" relative="1" as="geometry"><mxPoint x="350" y="340" as="sourcePoint"/><mxPoint x="470" y="340" as="targetPoint"/><Array as="points"/></mxGeometry></mxCell><mxCell id="8" value="" style="edgeStyle=none;curved=1;rounded=0;orthogonalLoop=1;jettySize=auto;html=1;endArrow=none;sourcePerimeterSpacing=8;fontSize=16;sketch=1;exitX=0.5;exitY=0;exitDx=0;exitDy=0;entryX=0.5;entryY=1;entryDx=0;entryDy=0;" parent="1" source="3" target="56" edge="1"><mxGeometry width="120" relative="1" as="geometry"><mxPoint x="240" y="540" as="sourcePoint"/><mxPoint x="240" y="535" as="targetPoint"/><Array as="points"/></mxGeometry></mxCell><mxCell id="12" value="SSE" style="rounded=0;whiteSpace=wrap;html=1;" parent="1" vertex="1"><mxGeometry x="400" y="300" width="40" height="20" as="geometry"/></mxCell><mxCell id="17" value="" style="edgeStyle=none;html=1;exitX=0.5;exitY=1;exitDx=0;exitDy=0;entryX=0.5;entryY=0;entryDx=0;entryDy=0;endArrow=none;" parent="1" source="12" target="18" edge="1"><mxGeometry relative="1" as="geometry"><mxPoint x="430" y="310" as="sourcePoint"/><mxPoint x="440" y="440" as="targetPoint"/><Array as="points"/></mxGeometry></mxCell><mxCell id="33" style="edgeStyle=none;html=1;exitX=0.5;exitY=1;exitDx=0;exitDy=0;entryX=0.5;entryY=0;entryDx=0;entryDy=0;" parent="1" source="18" target="34" edge="1"><mxGeometry relative="1" as="geometry"><mxPoint x="420" y="540" as="targetPoint"/></mxGeometry></mxCell><mxCell id="18" value="Filter&lt;br&gt;&quot;Route Engine&quot;" style="ellipse;whiteSpace=wrap;html=1;fontColor=#009900;fillColor=#66FF66;strokeColor=#009900;" parent="1" vertex="1"><mxGeometry x="380" y="410" width="80" height="60" as="geometry"/></mxCell><mxCell id="19" value="eg SLC" style="text;html=1;align=center;verticalAlign=middle;resizable=0;points=[];autosize=1;strokeColor=none;" parent="1" vertex="1"><mxGeometry x="460" y="300" width="60" height="20" as="geometry"/></mxCell><mxCell id="20" value="Filter&lt;br&gt;&quot;Route Engine&quot;" style="ellipse;whiteSpace=wrap;html=1;fillColor=#ffcccc;strokeColor=#FF0000;fontColor=#FF0000;" parent="1" vertex="1"><mxGeometry x="200" y="410" width="80" height="60" as="geometry"/></mxCell><mxCell id="21" value="" style="edgeStyle=none;curved=1;rounded=0;orthogonalLoop=1;jettySize=auto;html=1;endArrow=none;fontSize=16;sketch=1;exitX=0.5;exitY=0;exitDx=0;exitDy=0;entryX=0.5;entryY=1;entryDx=0;entryDy=0;startArrow=none;" parent="1" source="56" target="20" edge="1"><mxGeometry width="120" relative="1" as="geometry"><mxPoint x="240" y="515" as="sourcePoint"/><mxPoint x="240" y="380" as="targetPoint"/><Array as="points"/></mxGeometry></mxCell><mxCell id="22" value="More &lt;br&gt;checks" style="text;html=1;align=center;verticalAlign=middle;resizable=0;points=[];autosize=1;strokeColor=none;" parent="1" vertex="1"><mxGeometry x="150" y="435" width="50" height="30" as="geometry"/></mxCell><mxCell id="23" value="Fewer&lt;br&gt;checks" style="text;html=1;align=center;verticalAlign=middle;resizable=0;points=[];autosize=1;strokeColor=none;" parent="1" vertex="1"><mxGeometry x="465" y="435" width="50" height="30" as="geometry"/></mxCell><mxCell id="28" style="edgeStyle=none;html=1;exitX=0.5;exitY=1;exitDx=0;exitDy=0;entryX=0.5;entryY=0;entryDx=0;entryDy=0;startArrow=none;" parent="1" source="29" target="12" edge="1"><mxGeometry relative="1" as="geometry"/></mxCell><mxCell id="31" style="edgeStyle=none;html=1;exitX=1;exitY=0.5;exitDx=0;exitDy=0;entryX=0;entryY=0.5;entryDx=0;entryDy=0;" parent="1" source="26" target="29" edge="1"><mxGeometry relative="1" as="geometry"/></mxCell><mxCell id="26" value="GEO Locations" style="rounded=0;whiteSpace=wrap;html=1;" parent="1" vertex="1"><mxGeometry x="195" y="220" width="90" height="20" as="geometry"/></mxCell><mxCell id="29" value="Logic&lt;br&gt;Borderline Crossing!" style="ellipse;whiteSpace=wrap;html=1;" parent="1" vertex="1"><mxGeometry x="380" y="200" width="80" height="60" as="geometry"/></mxCell><mxCell id="32" value="Covers more&lt;br&gt;eg. Location&lt;br&gt;Events" style="text;html=1;align=center;verticalAlign=middle;resizable=0;points=[];autosize=1;strokeColor=none;" parent="1" vertex="1"><mxGeometry x="60" y="430" width="80" height="50" as="geometry"/></mxCell><mxCell id="43" style="edgeStyle=none;html=1;exitX=0.5;exitY=1;exitDx=0;exitDy=0;entryX=0.5;entryY=0;entryDx=0;entryDy=0;" parent="1" source="34" target="41" edge="1"><mxGeometry relative="1" as="geometry"/></mxCell><mxCell id="46" style="edgeStyle=none;html=1;exitX=0.5;exitY=1;exitDx=0;exitDy=0;entryX=0.5;entryY=0;entryDx=0;entryDy=0;" parent="1" source="34" target="45" edge="1"><mxGeometry relative="1" as="geometry"/></mxCell><mxCell id="52" style="edgeStyle=none;html=1;exitX=1;exitY=0.75;exitDx=0;exitDy=0;entryX=0.5;entryY=0;entryDx=0;entryDy=0;strokeColor=#FF8000;" parent="1" source="34" target="50" edge="1"><mxGeometry relative="1" as="geometry"/></mxCell><mxCell id="34" value="Resource Data" style="rounded=0;whiteSpace=wrap;html=1;fillColor=#cdeb8b;strokeColor=#36393d;" parent="1" vertex="1"><mxGeometry x="375" y="535" width="90" height="20" as="geometry"/></mxCell><mxCell id="36" value="Map layer &amp;gt;&lt;br&gt;clasify position&lt;br&gt;if change &amp;gt;" style="text;html=1;align=center;verticalAlign=middle;resizable=0;points=[];autosize=1;strokeColor=none;fillColor=none;" parent="1" vertex="1"><mxGeometry x="100" y="220" width="90" height="50" as="geometry"/></mxCell><mxCell id="38" value="&lt;font color=&quot;#ff8000&quot;&gt;Difficult to &lt;br&gt;clean&lt;/font&gt;" style="text;html=1;align=center;verticalAlign=middle;resizable=0;points=[];autosize=1;strokeColor=none;" parent="1" vertex="1"><mxGeometry x="320" y="565" width="70" height="30" as="geometry"/></mxCell><mxCell id="39" value="Phase 2: Risky" style="text;html=1;align=center;verticalAlign=middle;resizable=0;points=[];autosize=1;strokeColor=none;fontColor=#FF0000;fontStyle=1" parent="1" vertex="1"><mxGeometry x="80" y="400" width="100" height="20" as="geometry"/></mxCell><mxCell id="44" style="edgeStyle=none;html=1;exitX=0.5;exitY=1;exitDx=0;exitDy=0;entryX=0.5;entryY=0;entryDx=0;entryDy=0;" parent="1" source="41" target="42" edge="1"><mxGeometry relative="1" as="geometry"/></mxCell><mxCell id="41" value="Datawarehouse" style="rounded=0;whiteSpace=wrap;html=1;" parent="1" vertex="1"><mxGeometry x="350" y="605" width="90" height="20" as="geometry"/></mxCell><mxCell id="42" value="Reporting" style="rounded=0;whiteSpace=wrap;html=1;" parent="1" vertex="1"><mxGeometry x="350" y="655" width="90" height="20" as="geometry"/></mxCell><mxCell id="45" value="DynaMiX" style="rounded=0;whiteSpace=wrap;html=1;" parent="1" vertex="1"><mxGeometry x="455" y="605" width="90" height="20" as="geometry"/></mxCell><mxCell id="48" value="&lt;div style=&quot;text-align: center&quot;&gt;&lt;span&gt;&lt;font face=&quot;helvetica&quot;&gt;(IFTA)&lt;/font&gt;&lt;/span&gt;&lt;/div&gt;" style="text;whiteSpace=wrap;html=1;" parent="1" vertex="1"><mxGeometry x="470" y="310" width="30" height="20" as="geometry"/></mxCell><mxCell id="53" style="edgeStyle=none;html=1;exitX=0.5;exitY=1;exitDx=0;exitDy=0;entryX=0.5;entryY=0;entryDx=0;entryDy=0;strokeColor=#FF8000;" parent="1" source="50" target="51" edge="1"><mxGeometry relative="1" as="geometry"/></mxCell><mxCell id="50" value="Positions&lt;br&gt;(Ifta Export API)" style="rounded=0;whiteSpace=wrap;html=1;strokeColor=#FF8000;" parent="1" vertex="1"><mxGeometry x="565" y="605" width="90" height="35" as="geometry"/></mxCell><mxCell id="51" value="Lance Report" style="rounded=0;whiteSpace=wrap;html=1;strokeColor=#FF8000;" parent="1" vertex="1"><mxGeometry x="565" y="655" width="90" height="20" as="geometry"/></mxCell><mxCell id="54" value="Phase 1: POC" style="text;html=1;align=center;verticalAlign=middle;resizable=0;points=[];autosize=1;strokeColor=none;fontStyle=1;fontColor=#009900;" parent="1" vertex="1"><mxGeometry x="465" y="400" width="90" height="20" as="geometry"/></mxCell><mxCell id="59" style="edgeStyle=none;html=1;exitX=1;exitY=0;exitDx=0;exitDy=0;fontColor=#009900;dashed=1;dashPattern=1 4;strokeColor=#66FF66;" parent="1" source="56" target="18" edge="1"><mxGeometry relative="1" as="geometry"/></mxCell><mxCell id="56" value="&lt;span style=&quot;font-weight: 400&quot;&gt;Position&lt;/span&gt;" style="rounded=0;whiteSpace=wrap;html=1;strokeColor=#009900;fontStyle=1;fontColor=#009900;" parent="1" vertex="1"><mxGeometry x="210" y="515" width="60" height="20" as="geometry"/></mxCell><mxCell id="60" style="edgeStyle=none;html=1;exitX=0;exitY=1;exitDx=0;exitDy=0;entryX=1;entryY=0;entryDx=0;entryDy=0;dashed=1;dashPattern=1 4;fontColor=#009900;strokeColor=#66FF66;" parent="1" source="57" target="18" edge="1"><mxGeometry relative="1" as="geometry"/></mxCell><mxCell id="57" value="&lt;span style=&quot;font-weight: 400&quot;&gt;Consume Kafka&amp;nbsp;&lt;/span&gt;&lt;br style=&quot;font-weight: 400&quot;&gt;&lt;span style=&quot;font-weight: 400&quot;&gt;(topic?)&lt;/span&gt;" style="rounded=0;whiteSpace=wrap;html=1;strokeColor=#009900;fontStyle=1;fontColor=#009900;" parent="1" vertex="1"><mxGeometry x="460" y="360" width="100" height="30" as="geometry"/></mxCell><mxCell id="61" value="IFTA report problem" style="text;html=1;align=center;verticalAlign=middle;resizable=0;points=[];autosize=1;strokeColor=none;fontColor=#FF8000;" vertex="1" parent="1"><mxGeometry x="550" y="565" width="120" height="20" as="geometry"/></mxCell></root></mxGraphModel>